<svg width="323" height="64" viewBox="0 0 323 64" fill="none" xmlns="http://www.w3.org/2000/svg">
<path d="M135.193 25.9535C133.673 26.5935 132.513 26.8335 129.153 27.6735L128.513 27.8335V33.1135C132.153 31.9535 137.033 30.1535 140.273 28.8335C141.993 28.1535 142.713 27.3535 143.113 25.7935L145.433 16.5535L147.033 15.5535L146.833 10.9535C146.793 10.1935 146.393 9.79348 145.673 9.79348H140.393C139.953 9.79348 139.753 10.0335 139.753 10.4335C139.753 10.5135 139.753 10.6335 139.753 10.7935L140.113 14.6735C140.153 15.1935 140.313 15.3535 140.793 15.5535L143.073 16.4735L141.393 21.3535C140.713 23.2735 140.393 23.6735 139.353 24.1935L137.553 25.1135L134.073 15.8735C134.913 15.4735 135.233 15.3535 136.353 15.0735L136.833 11.0735C136.833 10.8335 136.873 10.6735 136.873 10.5535C136.873 10.0735 136.513 9.79348 135.793 9.79348H132.393C131.473 9.79348 131.153 9.55347 130.833 8.55348C130.793 8.51348 130.753 8.43347 130.713 8.31348L128.793 8.67348L129.473 15.7935C130.473 15.8735 130.793 16.0735 131.113 16.7535L135.193 25.9535ZM162.364 15.7935L162.764 30.7135L167.284 29.9535L167.084 28.4335L166.324 23.1135L165.804 17.7535L165.724 16.3935C166.324 15.8335 166.524 15.7135 167.604 15.1135L167.284 12.0335C167.084 10.2335 166.684 9.79348 165.044 9.79348H152.764C151.804 9.79348 151.524 9.55347 151.124 8.31348L149.204 8.67348L149.844 15.7935H162.364ZM172.715 24.1935L176.595 26.1535C178.115 21.2335 178.995 16.7935 178.995 14.0335C178.995 11.3535 178.075 9.79348 176.515 9.79348H173.355C172.355 9.79348 172.115 9.55347 171.715 8.31348L169.755 8.67348L170.435 15.7935H173.235C174.755 15.7935 175.395 16.4335 175.395 17.9135C175.395 18.7935 175.115 19.6735 174.475 20.9135L172.715 24.1935ZM187.836 17.1535L187.276 11.3135C187.156 10.2335 186.836 9.79348 186.116 9.79348H184.836C183.876 9.79348 183.596 9.55347 183.196 8.31348L181.236 8.67348L181.916 15.7935C184.436 16.0735 185.076 16.4735 185.076 17.6335C185.076 17.8735 185.036 18.2335 184.956 18.4735L182.316 30.7135L186.476 30.3135L188.156 20.5135C188.356 19.2735 188.996 18.0735 190.036 17.1135C190.836 16.3135 192.036 16.0335 194.356 16.0335C196.636 16.0335 197.516 16.7535 198.076 19.0735L199.316 24.3135H190.476L189.716 30.3135H201.676L202.276 25.2735L202.076 18.9935C201.956 15.3935 201.276 12.7935 200.196 11.3535C199.476 10.2735 198.716 10.1135 195.196 10.1135C193.596 10.1135 193.276 10.1135 192.916 10.2335C192.636 10.3135 192.396 10.5135 192.076 10.9535L187.836 17.1535ZM209.959 30.7135L213.559 29.7935C213.559 29.0735 213.559 28.5535 213.559 28.1535V27.8735C213.559 27.0335 213.519 25.2735 213.439 22.6335C213.359 19.9535 213.319 18.0735 213.239 17.0335L212.959 13.2735C212.759 10.5535 212.079 9.79348 209.799 9.79348H207.999C206.999 9.79348 206.759 9.55347 206.359 8.31348L204.399 8.67348L205.079 15.7935H207.719C208.479 15.7935 208.879 15.9935 209.119 16.4735C209.359 16.9935 209.519 17.8335 209.679 19.7935C209.879 22.3535 209.959 24.1535 209.959 28.8735V30.7135ZM215.65 30.3135H220.61C222.13 27.2735 222.57 26.5135 223.93 24.3535C224.57 27.2735 225.01 28.6335 225.97 30.7135L229.49 28.7535C229.37 28.5135 229.25 28.2735 229.17 28.1535C227.53 25.1135 227.33 24.6735 226.81 22.5535C226.29 20.5935 226.09 18.4335 226.09 15.7935V13.1135C226.09 10.8735 225.33 9.79348 223.65 9.79348H221.17C220.17 9.79348 219.93 9.55347 219.53 8.31348L217.57 8.67348L218.25 15.7935H220.17C221.77 15.7935 222.37 16.3135 222.65 17.9535L223.05 20.2735C223.13 20.6335 223.17 21.1135 223.17 21.3935C223.17 22.4735 222.29 23.4335 220.93 23.7935C219.81 24.1135 218.17 24.2735 215.65 24.3135V30.3135ZM232.386 15.7935H241.626C242.346 15.7935 242.866 15.9135 243.346 16.1935C244.466 16.8335 244.786 18.2735 244.786 23.9135V29.3135V30.7135L249.026 29.6735C248.666 27.2735 248.586 26.5535 248.506 24.5135L248.106 14.4735C247.986 11.3535 246.306 9.79348 242.986 9.79348H235.346C234.386 9.79348 234.106 9.55347 233.706 8.31348L231.746 8.67348L232.386 15.7935ZM254.155 15.7935H257.595C255.995 18.3535 255.515 19.5535 255.515 20.9935C255.515 21.6735 255.635 22.6335 255.715 23.7935L255.755 24.3135H252.075L251.355 30.3135H258.315C258.955 30.3135 259.075 30.1935 259.195 29.4735L259.635 26.5135C258.715 22.3535 258.435 20.7935 258.435 19.6735C258.435 18.3935 258.795 17.2335 259.715 15.7935H266.475C267.195 15.7935 267.715 15.9135 268.195 16.1935C269.315 16.8335 269.635 18.2735 269.635 23.9135V29.3135V30.7135L273.835 29.6735C273.515 27.2735 273.435 26.5535 273.355 24.5135L272.955 14.4735C272.835 11.3535 271.115 9.79348 267.835 9.79348H257.115C256.115 9.79348 255.875 9.55347 255.475 8.31348L253.515 8.67348L254.155 15.7935Z" fill="#303AAA"/>
<path d="M94.0927 49.5595L95.8387 50.4415C96.5227 48.2275 96.9187 46.2295 96.9187 44.9875C96.9187 43.7815 96.5047 43.0795 95.8027 43.0795H94.3807C93.9307 43.0795 93.8227 42.9715 93.6427 42.4135L92.7607 42.5755L93.0667 45.7795H94.3267C95.0107 45.7795 95.2987 46.0675 95.2987 46.7335C95.2987 47.1295 95.1727 47.5255 94.8847 48.0835L94.0927 49.5595ZM102.661 46.3735H103.003C103.345 45.9955 103.741 45.8335 104.191 45.8335C104.839 45.8335 105.001 46.3555 105.055 48.1375L105.073 48.7855C105.073 49.0915 105.037 49.1995 104.947 49.2895C104.839 49.3795 104.749 49.3975 103.651 49.6495L102.589 49.9015C102.229 49.9915 101.905 50.0275 101.725 50.0275C101.473 50.0275 101.275 49.9375 101.149 49.7575C100.933 49.4335 100.717 48.8395 100.537 47.9755C100.393 47.4355 100.339 46.8415 100.339 46.3735C100.339 46.1215 100.357 46.0135 100.393 45.9415C100.447 45.8515 100.501 45.8335 101.185 45.6895C101.203 45.6895 101.239 45.6715 101.293 45.6715L101.473 43.9615C101.491 43.8535 101.491 43.7455 101.491 43.6555C101.491 43.2415 101.347 43.0795 100.897 43.0795H99.7634C99.3314 43.0795 99.2054 42.9715 99.0254 42.4135L98.1434 42.5755L98.4494 45.7795H99.0254V45.9955C99.0254 46.2295 99.0074 46.4455 99.0074 46.6795C99.0074 48.4975 99.1514 49.8475 99.4754 51.3955C99.6554 52.2055 99.8894 52.4935 100.357 52.4935C100.969 52.4935 102.733 52.1335 104.731 51.5755C105.739 51.3055 106.045 50.9455 106.243 49.8295L106.747 46.9135C106.783 46.6795 106.819 46.4275 106.819 46.1755C106.819 45.4195 106.621 44.3035 106.387 43.7815C106.189 43.3135 105.901 43.2235 104.713 43.2235C103.345 43.2235 103.075 43.3315 103.003 43.8535L102.661 46.3735ZM107.878 52.3135H114.088C114.664 52.3135 114.898 52.1695 115.168 51.6835C115.636 50.8195 115.996 49.5775 115.996 48.6595C115.996 48.4615 115.978 48.2635 115.942 48.0835L115.15 44.3395C114.97 43.4755 114.43 43.0795 113.422 43.0795H110.2C109.75 43.0795 109.642 42.9715 109.462 42.4135L108.58 42.5755L108.94 47.9575C108.976 48.4975 109.048 48.5695 109.498 48.5695H111.19C111.424 48.5695 111.514 48.4975 111.514 48.3175C111.514 48.2995 111.514 48.2815 111.514 48.2635L111.388 47.2555C111.352 46.9675 111.28 46.8955 111.064 46.8955C111.028 46.8955 110.992 46.8955 110.938 46.8955C110.92 46.8955 110.884 46.8955 110.848 46.8955C110.326 46.8955 110.164 46.7515 110.164 46.2835C110.164 45.8695 110.254 45.7795 110.722 45.7795H113.044C113.674 45.7795 113.89 45.9235 114.034 46.4635L114.592 48.4795C114.628 48.6055 114.646 48.7495 114.646 48.8755C114.646 49.4155 114.394 49.6135 113.71 49.6135H108.22L107.878 52.3135ZM120.834 50.0455H120.132C119.664 49.0195 119.286 47.3815 119.268 46.1755C119.646 46.0315 119.772 45.9595 120.24 45.8515L120.402 45.8155L120.15 43.4395C120.114 43.1695 120.024 43.0795 119.736 43.0795H118.638C118.188 43.0795 118.08 42.9715 117.9 42.4135L117.018 42.5755L117.306 45.8155C117.63 45.9235 117.738 45.9595 118.044 46.1395C118.062 46.2655 118.062 46.3555 118.062 46.4095C118.08 46.5715 118.134 47.1295 118.206 48.1015C118.224 48.7855 118.26 49.3435 118.314 49.8115C118.476 50.8555 118.566 51.3235 118.854 52.4575C119.268 52.4935 119.448 52.5115 119.718 52.5115C120.654 52.5115 122.31 52.3315 123.426 52.1335C124.506 51.9355 125.208 51.6475 125.622 51.2695C126 50.9635 126.342 50.3515 126.684 49.4515C127.026 48.5335 127.242 47.7955 127.53 46.3375L127.602 45.9775C127.836 45.8695 127.926 45.8335 128.178 45.7795L128.412 43.9615C128.43 43.8535 128.43 43.7455 128.43 43.6735C128.43 43.2955 128.196 43.0795 127.746 43.0795H125.712C125.46 43.0795 125.352 43.1515 125.352 43.3495C125.352 43.3675 125.352 43.3855 125.352 43.4215L125.604 45.6355C125.946 45.7615 126.036 45.8155 126.324 45.9775C126.198 47.1295 125.748 48.4795 125.298 49.0735C124.92 49.5775 123.768 49.8655 121.95 49.9195L123.084 46.0495C123.498 45.8155 123.588 45.7975 124.398 45.5995L124.2 43.5475C124.164 43.1695 124.074 43.0795 123.768 43.0795H121.896C121.59 43.0795 121.446 43.2055 121.446 43.4935V43.5475L121.59 46.1755L120.834 50.0455ZM132.397 46.3915L132.145 43.7635C132.091 43.2775 131.947 43.0795 131.623 43.0795H131.047C130.615 43.0795 130.489 42.9715 130.309 42.4135L129.427 42.5755L129.733 45.7795C130.867 45.9055 131.155 46.0855 131.155 46.6075C131.155 46.7155 131.137 46.8775 131.101 46.9855L129.913 52.4935L131.785 52.3135L132.541 47.9035C132.631 47.3455 132.919 46.8055 133.387 46.3735C133.747 46.0135 134.287 45.8875 135.331 45.8875C136.357 45.8875 136.753 46.2115 137.005 47.2555L137.563 49.6135H133.585L133.243 52.3135H138.625L138.895 50.0455L138.805 47.2195C138.751 45.5995 138.445 44.4295 137.959 43.7815C137.635 43.2955 137.293 43.2235 135.709 43.2235C134.989 43.2235 134.845 43.2235 134.683 43.2775C134.557 43.3135 134.449 43.4035 134.305 43.6015L132.397 46.3915ZM145.755 49.5595L147.501 50.4415C148.185 48.2275 148.581 46.2295 148.581 44.9875C148.581 43.7815 148.167 43.0795 147.465 43.0795H146.043C145.593 43.0795 145.485 42.9715 145.305 42.4135L144.423 42.5755L144.729 45.7795H145.989C146.673 45.7795 146.961 46.0675 146.961 46.7335C146.961 47.1295 146.835 47.5255 146.547 48.0835L145.755 49.5595ZM149.608 52.3135H154.9L154.828 51.4675L154.702 49.3435L154.612 46.7695L154.54 44.3935C154.504 43.4755 154.198 43.0795 153.478 43.0795H152.254C151.822 43.0795 151.696 42.9715 151.516 42.4135L150.634 42.5755L150.94 45.7795C152.524 45.8155 152.794 45.9595 152.92 46.7875L153.208 48.7675C153.226 48.8755 153.244 49.0015 153.244 49.1095C153.244 49.4515 153.082 49.6135 152.704 49.6135H149.968L149.608 52.3135ZM157.268 49.5595L159.014 50.4415C159.698 48.2275 160.094 46.2295 160.094 44.9875C160.094 43.7815 159.68 43.0795 158.978 43.0795H157.556C157.106 43.0795 156.998 42.9715 156.818 42.4135L155.936 42.5755L156.242 45.7795H157.502C158.186 45.7795 158.474 46.0675 158.474 46.7335C158.474 47.1295 158.348 47.5255 158.06 48.0835L157.268 49.5595ZM161.085 45.7795H166.251C166.863 45.7795 167.241 46.1035 167.241 46.6435C167.241 47.1655 166.809 48.0295 166.215 48.6955C165.639 49.3615 164.937 49.7035 163.551 50.0275V52.3135H164.847C165.819 51.4855 166.179 51.1255 166.881 50.2615C167.403 49.6135 167.817 48.9655 168.123 48.3535C168.663 47.2735 168.969 46.0315 168.969 45.0415C168.969 43.7815 168.249 43.0795 166.989 43.0795H163.389C162.669 43.0795 162.399 42.4135 162.399 40.7215H163.551L163.497 39.4795C163.479 39.0475 163.263 38.8495 162.885 38.8495H161.085V45.7795ZM173.149 49.7395V52.0075H174.229C176.731 50.1895 177.991 47.9935 177.991 45.4195C177.991 43.9255 177.415 43.0795 176.407 43.0795H171.529C171.097 43.0795 170.971 42.9715 170.791 42.4135L169.909 42.5755L170.215 45.7795H174.823C175.723 45.7795 176.299 46.2835 176.299 47.0575C176.299 48.2995 174.985 49.4155 173.149 49.7395ZM170.341 56.3455C170.575 56.3635 170.701 56.3635 170.827 56.3635C171.421 56.3635 171.673 56.3275 172.231 56.0935L172.141 55.4995C171.835 53.4835 171.745 52.3315 171.745 50.8915C171.745 50.4775 171.745 49.6315 171.817 48.3715L171.853 47.7415C171.151 47.7415 170.935 47.7775 170.341 47.9395V56.3455ZM183.751 45.7795H187.909C188.431 45.7795 188.827 45.9595 189.007 46.2655C189.277 46.7695 189.349 47.7775 189.349 51.3955V52.1695L189.331 55.7335V56.3635L191.239 55.8955C191.095 54.9055 191.023 54.2215 191.005 53.5735L190.825 45.1855C190.789 43.8535 189.961 43.0795 188.521 43.0795H185.083C184.651 43.0795 184.525 42.9715 184.345 42.4135L183.463 42.5755L183.751 45.7795ZM194.736 52.4935L196.356 52.0795C196.356 51.7555 196.356 51.5215 196.356 51.3415V51.2155C196.356 50.8375 196.338 50.0455 196.302 48.8575C196.266 47.6515 196.248 46.8055 196.212 46.3375L196.086 44.6455C195.996 43.4215 195.69 43.0795 194.664 43.0795H193.854C193.404 43.0795 193.296 42.9715 193.116 42.4135L192.234 42.5755L192.54 45.7795H193.728C194.07 45.7795 194.25 45.8695 194.358 46.0855C194.466 46.3195 194.538 46.6975 194.61 47.5795C194.7 48.7315 194.736 49.5415 194.736 51.6655V52.4935ZM197.315 52.3135H202.607L202.535 51.4675L202.409 49.3435L202.319 46.7695L202.247 44.3935C202.211 43.4755 201.905 43.0795 201.185 43.0795H199.961C199.529 43.0795 199.403 42.9715 199.223 42.4135L198.341 42.5755L198.647 45.7795C200.231 45.8155 200.501 45.9595 200.627 46.7875L200.915 48.7675C200.933 48.8755 200.951 49.0015 200.951 49.1095C200.951 49.4515 200.789 49.6135 200.411 49.6135H197.675L197.315 52.3135ZM204.976 49.5595L206.722 50.4415C207.406 48.2275 207.802 46.2295 207.802 44.9875C207.802 43.7815 207.388 43.0795 206.686 43.0795H205.264C204.814 43.0795 204.706 42.9715 204.526 42.4135L203.644 42.5755L203.95 45.7795H205.21C205.894 45.7795 206.182 46.0675 206.182 46.7335C206.182 47.1295 206.056 47.5255 205.768 48.0835L204.976 49.5595ZM215.56 45.7795L215.722 52.4935L217.756 52.1515L217.666 51.4675C217.414 49.5775 217.27 48.4615 217.108 46.6615L217.054 46.0495C217.324 45.7975 217.414 45.7435 217.9 45.4735L217.756 44.0875C217.684 43.3135 217.468 43.0795 216.838 43.0795H210.466C210.016 43.0795 209.89 42.9715 209.71 42.4135L208.846 42.5755C208.936 43.3495 208.954 43.6195 209.026 44.5915C209.152 46.3195 209.17 47.1115 209.17 49.0015V49.4155V51.8635V52.4935L211.06 52.1155L211.042 51.4855C211.024 50.8915 210.988 50.0455 210.934 48.9295C210.862 47.2555 210.844 46.9135 210.736 45.7795H215.56ZM218.864 45.7795H224.03C224.642 45.7795 225.02 46.1035 225.02 46.6435C225.02 47.1655 224.588 48.0295 223.994 48.6955C223.418 49.3615 222.716 49.7035 221.33 50.0275V52.3135H222.626C223.598 51.4855 223.958 51.1255 224.66 50.2615C225.182 49.6135 225.596 48.9655 225.902 48.3535C226.442 47.2735 226.748 46.0315 226.748 45.0415C226.748 43.7815 226.028 43.0795 224.768 43.0795H221.168C220.448 43.0795 220.178 42.4135 220.178 40.7215H221.33L221.276 39.4795C221.258 39.0475 221.042 38.8495 220.664 38.8495H218.864V45.7795ZM235.537 45.7795H237.193L237.013 43.9435C236.959 43.3135 236.689 43.0795 236.041 43.0795H233.827C233.395 43.0795 233.269 42.9715 233.089 42.4135L232.207 42.5755L232.513 45.7795C233.179 45.8155 233.395 45.8515 233.953 46.0135L234.295 52.4935L236.275 51.9715C235.717 49.8835 235.483 48.2815 235.483 46.6615C235.483 46.3375 235.483 46.1755 235.537 45.7795ZM238.148 52.3135H244.61C245.114 52.3135 245.528 51.9895 245.654 51.4675L246.158 49.3435L245.834 46.0855C245.636 44.1415 244.772 43.0795 243.368 43.0795H240.38C239.948 43.0795 239.822 42.9715 239.642 42.4135L238.76 42.5755L239.066 45.7795H242.972C243.404 45.7795 243.782 45.9955 244.034 46.3735C244.25 46.6975 244.394 47.1115 244.538 47.7775C244.664 48.2995 244.718 48.6415 244.718 48.8395C244.718 49.3435 244.358 49.6135 243.674 49.6135H238.508L238.148 52.3135ZM247.472 45.7795H251.63C251.954 45.7795 252.188 45.8335 252.404 45.9595C252.908 46.2475 253.052 46.8955 253.052 49.4335V51.8635V52.4935L254.96 52.0255C254.798 50.9455 254.762 50.6215 254.726 49.7035L254.546 45.1855C254.492 43.7815 253.736 43.0795 252.242 43.0795H248.804C248.372 43.0795 248.246 42.9715 248.066 42.4135L247.184 42.5755L247.472 45.7795ZM258.942 46.3915L258.69 43.7635C258.636 43.2775 258.492 43.0795 258.168 43.0795H257.592C257.16 43.0795 257.034 42.9715 256.854 42.4135L255.972 42.5755L256.278 45.7795C257.412 45.9055 257.7 46.0855 257.7 46.6075C257.7 46.7155 257.682 46.8775 257.646 46.9855L256.458 52.4935L258.33 52.3135L259.086 47.9035C259.176 47.3455 259.464 46.8055 259.932 46.3735C260.292 46.0135 260.832 45.8875 261.876 45.8875C262.902 45.8875 263.298 46.2115 263.55 47.2555L264.108 49.6135H260.13L259.788 52.3135H265.17L265.44 50.0455L265.35 47.2195C265.296 45.5995 264.99 44.4295 264.504 43.7815C264.18 43.2955 263.838 43.2235 262.254 43.2235C261.534 43.2235 261.39 43.2235 261.228 43.2775C261.102 43.3135 260.994 43.4035 260.85 43.6015L258.942 46.3915ZM266.882 52.4935L268.808 52.0075L268.664 47.3995L267.062 47.8675L266.882 52.4935ZM266.702 45.7795H273.2L273.38 52.4935L275.414 52.1515L275.306 51.4675L274.982 49.0735L274.748 46.6615L274.694 46.0495C274.964 45.7975 275.054 45.7435 275.54 45.4735L275.414 44.0875C275.342 43.2775 275.126 43.0795 274.406 43.0795H268.016C267.566 43.0795 267.458 42.9715 267.278 42.4135L266.396 42.5755L266.702 45.7795Z" fill="#303AAA"/>
<path d="M291.381 58.7057V52.3636L298.438 43.6497L300.298 12.7308H303.422L304.549 36.0973L312.568 26.1559L316.531 34.182L321.413 29.3662L322.552 31.6669V33.7478L318.718 38.7323L321.734 44.9256L319.367 47.9736L312.59 38.0514L291.381 58.7057Z" fill="#303AAA"/>
<path d="M302.884 2.92733L301.589 0.313477C297.622 5.1405 298.91 9.05077 300.05 10.4025H303.836L304.471 6.32296H302.077L302.884 2.92733Z" fill="#303AAA"/>
</svg>
